<svg xmlns="http://www.w3.org/2000/svg" viewBox="0 0 117 115" role="img" aria-label="벌써아침"><path fill="#21374E" fill-rule="evenodd" d="M14 114.8C14 114.7 13.8 114.3 13.5 114L13 113.4L13 110.2C13 106.1 13.2 105.7 14.4 107L15 107.7L15 110C15 112.8 15.1 113 16.3 113C17.5 113 17.8 113.3 17.4 113.9C17.3 114.2 17.1 114.5 17.1 114.7C16.9 115.1 16.2 115.1 15.8 114.6L15.5 114.2L15.2 114.6C14.8 115 14 115.1 14 114.8ZM28 114.8C28 114.7 27.8 114.3 27.5 114L27 113.4L27 110.5C27 106.8 26.8 107 30 107C32.1 107 32.4 107 32.7 107.3C33.8 108.5 31.6 109.7 30.1 108.6C29.3 108 28.6 108.9 29.3 109.7C29.6 109.9 29.9 110 31 110C32 110 32.3 110.1 32.5 110.3C32.9 110.7 32.3 111 30.8 111C29.7 111 29.5 111 29.3 111.4C28.6 112.4 29.2 113 30.9 113C32.5 113 32.9 113.3 32.4 113.9C32.3 114.2 32.1 114.5 32.1 114.7C31.9 115.1 28 115.2 28 114.8ZM34 113.3L34 111.7L34.6 111C34.9 110.6 35.4 110.1 35.6 109.9C35.8 109.6 36 109.3 36 109C36 108.5 37.5 107 38 107C38.2 107 38.7 107.3 39.2 107.8L40 108.6L40 110C40 111.3 40 111.5 40.5 112C41.7 113.4 40.5 114.6 39.1 113.5C38.5 113.1 38.3 113 37.1 113C35.4 113 35 113.2 35 114.3C35 115 35 115 34.5 115L34 115L34 113.3ZM71.9 114.6C71.8 114.3 71.5 114.1 71.1 114C70.7 113.9 70.1 113.5 69.7 113.1L69 112.4L69 111C69 109.7 69 109.5 69.5 109C69.8 108.7 70 108.3 70 108C70 107.6 70.6 107 71 107C71.2 107 71.7 106.8 72.1 106.5C72.4 106.2 72.8 106 73 106C73.2 106 73.6 106.2 73.9 106.5C74.3 106.8 74.8 107 75 107C75.4 107 77 108.4 77 108.8C77 109 77.1 109.2 77.2 109.4C77.6 109.9 78 109.4 78 108.4C78 107.6 78.4 107 79 107C79.2 107 79.6 106.8 79.8 106.7C80.1 106.5 80.4 106.3 80.5 106.3C80.6 106.3 80.9 106.5 81.2 106.7C81.5 106.9 81.8 107 82.4 107C83.1 107 83.4 107.1 83.9 107.4C84.2 107.6 84.6 107.8 84.7 107.8C84.8 107.8 85.1 107.6 85.3 107.4C86 106.6 87.2 106.8 88.2 107.8C88.7 108.4 89 108.8 89 109C89 109.3 89.2 109.7 89.6 110.1C90.7 111.1 91 110.8 91 109C91 107.6 91.3 107 92 107C92.9 107 93 107.4 93 110.5C93 113.8 92.9 114 91.5 114C90.6 114 90 113.6 90 112.9C90 112.5 88.9 111.3 88.6 111.3C88.2 111.3 88 111.8 88 112.5C88 113.4 87.6 114 87 114C86.3 114 86 113.4 86 112C86 109.9 85.2 109.3 83.9 110.6C83.2 111.4 83.2 111.5 84 112.5C84.8 113.4 84.8 113.6 84.3 113.8C83.8 114.1 83.5 114 82.1 112.6C80.4 111 80 111 80 112.5C80 113.1 79.9 113.4 79.7 113.7C78.9 114.4 78 113.8 78 112.6C78 111.6 77.6 111.1 77.2 111.6C77.1 111.8 77 112 77 112.2C77 112.6 75.6 113.8 74.9 114C74.5 114.1 74.2 114.3 74.1 114.6C74 115 73.8 115 73 115C72.2 115 72 115 71.9 114.6ZM107.9 114.6C107.8 114.3 107.5 114.1 107.1 114C106.7 113.9 106.1 113.5 105.7 113.1L105 112.4L105 111L105 109.6L106.2 108.4C106.9 107.7 107.6 107.1 107.8 107.1C108.3 107 108.5 106.8 109.2 106.5C109.4 106.3 109.6 106.3 109.8 106.5C110.4 106.8 110.7 107 111.2 107.1C111.9 107.3 112.2 108 111.8 108.6C111.4 109.2 110.7 109.1 110 108.5C109.2 107.8 108.7 107.8 107.8 108.8C106.7 109.8 106.6 111.1 107.7 112.1C108.9 113.4 110.1 113.2 109.4 111.9C108.6 110.5 109.1 110 111 110C112.7 110 113 110.2 113 111.5C113 112.6 112.1 113.7 111 114C110.5 114.1 110.3 114.3 110.1 114.6C109.9 115.2 108.1 115.2 107.9 114.6ZM4.6 113.8C4.3 113.6 4.3 113.4 4.7 112.8C4.9 112.5 5 112.2 5 111.6C5 110.9 5.1 110.6 5.5 110.1C5.8 109.7 6 109.2 6 109C6 108.2 7.5 107 8.5 107C9.6 107 10 107.4 10 108.5C10 109.2 10.1 109.5 10.5 110.1C10.8 110.4 11 110.9 11 111.1C11 111.3 11.2 111.7 11.5 112C12.7 113.4 11.5 114.6 10.1 113.5C9.5 113 9.3 113 8 113C6.7 113 6.5 113 5.9 113.5C5.2 114 5.1 114.1 4.6 113.8ZM24 113.4C23.6 113 23.1 112.6 22.8 112.4C22.1 111.7 21.3 112 21 112.9C20.8 113.8 20.4 113.8 19.7 113L19 112.3L19 110L19 107.7L19.6 107C20.3 106.3 20.6 106.2 21.2 106.7C21.5 106.9 21.9 107 23 107L24.3 107L25.2 107.8C26.2 108.8 26.4 110 25.5 111C24.9 111.7 24.9 112.2 25.3 112.8C25.7 113.4 25.7 113.6 25.3 113.8C24.9 114.1 24.7 114.1 24 113.4ZM42.3 113.7C42 113.4 42 113.1 42 110.5C42 107 42 107 44 107C45.1 107 45.5 106.9 45.8 106.7C46.4 106.2 46.6 106.2 47.5 107C48.4 107.8 48.5 107.8 49.2 107.3C49.9 106.9 50.2 106.9 50.9 107.5C51.9 108.2 53.1 108.2 54.1 107.5C55.5 106.5 56.5 107.5 55.5 108.9C55.2 109.3 55 109.8 55 110C55 110.3 54.3 111.3 53.4 112.1C53.2 112.4 53 112.7 53 112.8C53 113 52.9 113.2 52.8 113.4C52.4 113.9 52 113.3 52 112.3C52 111.6 51.9 111.5 51.2 110.8C50 109.5 49 109.9 49 111.5C49 112.3 48.9 112.4 48.2 113.2L47.4 114L45 114C42.9 114 42.6 114 42.3 113.7ZM60.3 113.7C60 113.4 60 113.1 60 110.5C60 106.3 60.4 106 63.2 108.6C63.7 109.1 64.3 109.1 64.8 108.6C67.6 106 68 106.3 68 110.5C68 113.1 68 113.4 67.7 113.7C67.1 114.3 66 113.8 66 113C66 112.5 65.6 112.3 64.9 112.5C64.4 112.7 64.3 112.7 63.5 112C62.4 111.1 62.1 111.2 62 112.6C61.9 113.9 61.1 114.4 60.3 113.7ZM94.3 113.7C94 113.4 94 113.1 94 110.5C94 107.4 94.1 107 95 107C95.9 107 96 107.4 96 110.5C96 113.6 95.9 114 95 114C94.8 114 94.5 113.9 94.3 113.7ZM97.3 113.7C97 113.4 97 113.1 97 110.5C97 107.9 97 107.6 97.3 107.3C98 106.7 98.3 106.9 100.5 109C101.6 110 102 109.8 102 108.5C102 107.6 102.4 107 103 107C103.9 107 104 107.4 104 110.5C104 113.5 103.9 114 103 114C102.5 114 100 111.7 100 111.1C100 111 99.9 110.8 99.8 110.6C99.3 110 99 110.7 99 112.1C99 113.4 98.7 114 98 114C97.8 114 97.5 113.9 97.3 113.7ZM46.2 112.2C47.3 111.2 47.4 109.9 46.4 108.9C46 108.6 45.6 108.3 45.5 108.3C45.4 108.3 45 108.6 44.6 108.9C44 109.5 44 109.5 44 110.9C44 113.2 44.8 113.7 46.2 112.2ZM74.2 112.2C75 111.5 75 111.4 75 110.5C75 109.4 73.9 108 73 108C72.1 108 71 109.4 71 110.5C71 111.6 72.1 113 73 113C73.3 113 73.7 112.8 74.2 112.2ZM8.9 110.3C9 109.8 8.8 109.3 8.5 109.3C8.2 109.3 8 110 8.2 110.3C8.4 110.8 8.6 110.8 8.9 110.3ZM22.6 109.6C22.8 109.2 21.8 108.2 21.4 108.4C20.9 108.7 20.9 109.3 21.3 109.7C21.7 110.1 22.3 110.1 22.6 109.6ZM82.5 109.8C82.8 109.5 82.7 109.3 82.1 108.6C81.2 107.7 80 107.9 80 109C80 109.9 81.8 110.4 82.5 109.8ZM10.1 100.5C9.5 100.1 9.2 100 8.5 100C7.6 100 7 99.6 7 99C7 98.8 6.8 98.3 6.5 97.9C6 97.3 6 97.2 6 95.5L6 93.7L6.8 92.8L7.5 92L14.3 92C20.1 92 21.2 92 21.4 91.8C21.7 91.5 21.7 91.5 21.4 91.2C21.2 91 20.1 91 14.3 91L7.5 91L6.8 90.2C5.8 89.1 5.8 88.9 6.8 87.8L7.5 87L14.9 87C23.3 87 23 87 22.4 85.8C22.1 85.3 22 84.9 22 83.4C22 81.1 21.9 81 20 81C18.3 81 18 81.2 18 82.5C18 83.4 17.7 83.9 16.1 85.3L15.4 86L10 86L4.7 86L3.9 85.3C3.5 85 2.9 84.3 2.6 84L2 83.3L2 78.5L2 73.6L2.8 72.8L3.6 72L5 72C6.7 72 7 72.2 7 73.6C7 74.4 7 74.5 7.8 75.2L8.5 76L10 76L11.5 76L12.2 75.2C13 74.5 13 74.4 13 73.6C13 72.2 13.3 72 15 72L16.4 72L17.2 72.8L18 73.6L18 75C18 76.8 18.2 77 20 77C21.9 77 22 76.9 22 74.5L22 72.6L22.8 71.8C24 70.6 25 70.6 26.2 71.8L27 72.6L27 78.9L27 85.3L26.5 85.9C25.9 86.8 25.9 87.2 26.5 88.1L27 88.7L27 91.5L27 94.3L26.2 95.2L25.5 96L19.2 96C13.8 96 12.8 96 12.6 96.2C12.3 96.5 12.3 96.5 12.6 96.8C12.8 97 14 97 20.1 97C28.4 97 28 96.9 28 98.5C28 99.4 27.6 100 27 100C26.8 100 26.3 100.2 25.9 100.5L25.3 101L18 101L10.7 101L10.1 100.5ZM51.8 99.2L51 98.4L51 91.5C51 83.6 51.1 84 49.5 84C48.1 84 47 82.8 47 81.5C47 80.2 48.1 79 49.5 79C50.9 79 51 78.9 51 75.5C51 72.4 51.1 72 52 72C52.2 72 52.7 71.8 53.1 71.5C53.6 71.1 53.9 71 54.2 71.1C54.8 71.2 56 72.6 56 73C56 73.2 56.2 73.6 56.3 73.8C56.5 74.1 56.7 74.4 56.7 74.5C56.7 74.6 56.5 74.9 56.3 75.2C55.8 75.8 55.9 77.2 56.5 78.1L57 78.7L57 87.5L57 96.3L56.5 96.9C56.2 97.3 56 97.8 56 98C56 98.8 54.5 100 53.5 100C52.7 100 52.6 100 51.8 99.2ZM79.8 99.2L79 98.4L79 85.5L79 72.6L79.8 71.8C80.6 71 80.7 71 81.5 71C82.3 71 82.4 71 83.2 71.8L84 72.6L84 76.5C84 81 84 81 85.5 81C86.5 81 88.5 82.6 88.9 83.7C89.1 84.2 90.3 84.1 91.1 83.5C91.4 83.2 91.9 83 92.1 83C92.4 83 92.9 82.6 93.7 81.7C95 80.5 95 80.5 95 79.6C95 78.2 94.8 78 92.5 78C90.1 78 90 77.9 90 76C90 74.1 90.1 74 92.6 74L94.5 74L95.2 73.2C95.7 72.7 96 72.3 96 72C96 71.5 97.5 70 98 70C98.6 70 101 72.4 101 73C101 73.8 101.5 74 103.5 74L105.4 74L106.2 74.8C106.7 75.3 107 75.8 107 76C107 76.2 106.7 76.7 106.2 77.2L105.4 78L103.5 78C101.5 78 101 78.2 101 79.1C101 79.6 103.3 82 103.9 82C104.9 82 107 84.4 107 85.5C107 86.8 106.7 87 104.5 87L102.7 87L102 86.4C101.6 86 101.1 85.6 100.8 85.4C100.6 85.2 100.3 85 100.1 85C99.9 85 99.5 84.8 99.2 84.7C98.5 84.2 98.4 84.2 97.3 85.2C96.8 85.6 96.1 86 95.9 86C95.7 86 95.3 86.2 94.9 86.5C94.6 86.8 94.1 87 93.9 87C93.7 87 93.3 87.2 92.9 87.5C92.3 88 92.2 88 91 88C89.1 88 89 87.8 89 85.8C89 84.5 89 84.2 88.8 84.2C88.4 84.2 88 84.6 88 85.1C88 85.7 87.4 86 86 86C83.9 86 84 85.6 84 92.5L84 98.4L83.2 99.2C82.4 100 82.3 100 81.5 100C80.7 100 80.6 100 79.8 99.2ZM94.8 99.2L94 98.4L94 94.5L94 90.6L94.8 89.8L95.6 89L104 89L112.4 89L113.1 89.7C114.8 91.2 115 91.6 115 93C115 94.2 115 94.3 114.5 94.9C114 95.5 114 95.7 114 97L114 98.4L113.2 99.2L112.4 100L104 100L95.6 100L94.8 99.2ZM108.7 95.7C108.9 95.4 109 95.1 109 94.5C109 93 109 93 104 93C99 93 99 93 99 94.5C99 96 99 96 104 96C108.1 96 108.4 96 108.7 95.7ZM66.1 94.5C65.7 94.2 65.3 94 65.1 94C64.9 94 64.4 93.8 64.1 93.5C63.7 93.2 63.2 93 63 93C62.6 93 62 92.4 62 91.9C62 91.7 61.8 91.4 61.6 91.1C61.4 90.9 60.9 90.4 60.6 90L60 89.3L60 84.5L60 79.7L60.5 79.1C60.9 78.5 61 78.2 61 77.6C61 76.8 61.1 76.6 61.6 76C62.4 75 63.6 74 64.1 74C64.3 74 64.7 73.8 65.1 73.5C66.1 72.7 69.9 72.7 70.9 73.5C71.3 73.8 71.7 74 71.9 74C72.6 74 75 76.4 75 77.1C75 77.3 75.2 77.7 75.5 78.1C75.9 78.6 76 78.9 76 79.6C76 80.2 76.1 80.5 76.5 81.1C77.3 82.1 77.3 85.9 76.5 86.9C76.1 87.5 76 87.8 76 88.4C76 89.1 75.9 89.4 75.5 89.9C75.2 90.3 75 90.7 75 90.9C75 91.4 74.2 92.4 73.1 93.3C72.4 93.9 72.2 94 71.4 94C70.8 94 70.5 94.1 69.9 94.5C69.3 95 69.2 95 68 95C66.8 95 66.7 95 66.1 94.5ZM38.8 94.3C38.6 94.2 38.2 94 38 94C37.3 94 37 93.5 37 92C37 90.6 36.7 90 36 90C35.6 90 35 90.6 35 91C35 91.1 34.8 91.6 34.5 91.9C34.2 92.3 34 92.8 34 93C34 94.2 31.2 94.5 30 93.4C29.3 92.7 29.2 92.4 29.7 91.8C29.8 91.6 30 91.3 30 91.1C30 90.9 30.2 90.4 30.5 90.1C30.9 89.5 31 89.2 31 88.6C31 87.9 31.1 87.6 31.5 87.1C31.9 86.5 32 86.2 32 85.6C32 84.9 32.1 84.6 32.5 84.1L33 83.4L33 79L33 74.6L33.8 73.8C34.6 73 34.7 73 35.5 73C36.3 73 36.4 73 37.2 73.8L38 74.6L38 79L38 83.4L38.5 84C38.9 84.5 39 84.7 39 85.3C39 86.4 39.4 86.9 39.8 86.4C39.9 86.2 40 85.8 40 85.3C40 84.7 40.1 84.5 40.5 84L41 83.4L41 79L41 74.6L41.8 73.8C42.6 73 42.7 73 43.5 73C44.3 73 44.4 73 45.2 73.8L46 74.6L46 78.9L46 83.2L46.5 84C46.8 84.4 47 84.9 47 85.1C47 85.3 47.2 85.7 47.5 86.1C47.8 86.4 48 86.9 48 87.1C48 87.3 48.4 87.9 49 88.5L50 89.6L50 91.5C50 93.9 49.9 94 47.9 94L46.6 94L45.8 93.2C45 92.4 45 92.3 45 91.5C45 90.6 44.9 90.5 44.4 89.9C43.6 89.2 43 89.2 43 90C43 90.2 42.8 90.6 42.5 90.9C42.2 91.3 42 91.7 42 91.9C42 92.5 40 94.7 39.5 94.7C39.4 94.7 39.1 94.5 38.8 94.3ZM69.7 89.7C69.9 89.5 70 89.2 70 89C70 88.9 70.2 88.4 70.5 88.1L71 87.4L71 84L71 80.6L70.5 79.9C70.2 79.6 70 79.1 70 79C70 78.3 69.4 78 68 78C66.6 78 66 78.3 66 79C66 79.1 65.8 79.6 65.5 79.9L65 80.6L65 83.5L65 86.4L65.5 87.1C65.9 87.6 66 87.9 66 88.5C66 89.8 66.3 90 68 90C69.1 90 69.4 89.9 69.7 89.7ZM109.8 87.2L109 86.3L109 79.5L109 72.6L109.8 71.8C111.2 70.4 112.5 70.7 114.4 73L115 73.7L115 79.5L115 85.3L114.5 85.9C112.4 88.3 111.2 88.7 109.8 87.2ZM12.1 81.4C13.2 80.2 12.9 80 10 80C7.1 80 6.8 80.2 7.9 81.4L8.5 82L10 82L11.5 82L12.1 81.4ZM7.1 61.5C6.7 61.2 6.3 61 6.1 61C5.3 61 2 57.7 2 57C2 56.8 1.8 56.4 1.6 56C1.3 55.7 1.1 55.2 1 54.9C0.9 54.5 0.7 54.2 0.4 54.1L0 53.9L0 50C0 47.4 0.1 46 0.2 46C0.6 46 1 45.3 1 44.5C1 43.9 1.1 43.6 1.5 43.1C1.8 42.7 2 42.3 2 42.1C2 41.9 2.2 41.4 2.5 41.1C2.8 40.7 3 40.3 3 40.1C3 39.9 3.2 39.4 3.5 39.1C3.8 38.7 4 38.3 4 38.1C4 37.9 4.2 37.4 4.5 37.1C4.8 36.7 5 36.3 5 36.1C5 35.9 5.2 35.4 5.5 35.1C5.8 34.7 6 34.3 6 34.1C6 33.9 6.2 33.4 6.5 33.1C6.9 32.5 7 32.2 7 31.6C7 30.9 7.1 30.6 7.5 30.1C7.9 29.5 8 29.2 8 28.6C8 27.9 8.1 27.6 8.5 27.1C9 26.4 9 26.4 9 24.1C9 21.7 9 21.7 9.5 21.1C9.9 20.5 10 20.2 10 19.6C10 18.9 10.1 18.6 10.5 18.1C10.9 17.5 11 17.3 11 16.1C11 14.8 11 14.7 11.5 14.1C11.8 13.7 12 13.3 12 13.1C12 12.9 12.2 12.4 12.5 12.1C12.8 11.7 13 11.3 13 11.1C13 10.9 13.2 10.4 13.5 10.1C13.8 9.7 14 9.3 14 9.1C14 8.3 18.3 4 19.1 4C19.3 4 19.6 3.8 19.8 3.6C21 2.5 21.7 2 22.1 2C22.3 2 22.7 1.8 23.1 1.5C23.7 1 23.8 1 25.5 1C27.3 1 28 0.8 28 0.2C28 0.1 28.9 0 30.5 0C32.1 0 33 0.1 33 0.2C33 0.7 33.7 1 35 1C36.2 1 36.3 1 36.9 1.5C37.3 1.8 37.7 2 37.9 2C38.1 2 38.6 2.2 38.9 2.5C39.3 2.8 39.7 3 39.9 3C40.3 3 41 3.5 42.2 4.6C42.4 4.8 42.7 5 42.9 5C43.4 5 44 5.6 44 6.1C44 6.3 44.2 6.6 44.4 6.9C45.3 7.8 46 8.7 46 9.1C46 9.3 46.2 9.6 46.4 9.9C47.7 11.1 48 11.7 48 12.6C48 13.2 48.1 13.5 48.5 14.1C48.9 14.6 49 14.9 49 15.6C49 16.2 49.1 16.5 49.5 17.1C49.9 17.6 50 17.9 50 18.6C50 19.2 50.1 19.5 50.5 20.1C51 20.7 51 20.8 51 22.6C51 24.4 51 24.4 51.5 25.1C52 25.7 52 25.8 52 27.1C52 28.3 52.1 28.5 52.5 29.1C52.9 29.6 53 29.9 53 30.6C53 31.2 53.1 31.5 53.5 32.1C53.8 32.4 54 32.9 54 33.1C54 33.3 54.2 33.7 54.5 34.1C54.8 34.4 55 34.9 55 35.1C55 35.3 55.2 35.7 55.5 36.1C55.8 36.4 56 36.9 56 37.1C56 37.3 56.2 37.7 56.5 38.1C56.8 38.4 57 38.9 57 39.1C57 39.3 57.2 39.7 57.5 40.1C57.8 40.4 58 40.9 58 41.1C58 41.3 58.2 41.7 58.5 42.1C58.8 42.4 59 42.9 59 43.1C59 43.3 59.2 43.7 59.5 44.1C60 44.7 60 44.7 60 47.1C60 49.4 60 49.4 60.5 50.1C60.8 50.4 61 50.8 61 51C61 51.2 60.8 51.6 60.5 51.9C60.1 52.5 60 52.7 60 53.9C60 55.5 60 55.4 58 57.6C57.4 58.2 57 58.7 57 58.9C57 59.4 56.4 60 56 60C55.8 60 55.3 60.2 54.9 60.5C54.6 60.8 54.1 61 53.9 61C53.7 61 53.3 61.2 52.9 61.5C52.3 62 52.3 62 50 62C47.7 62 47.7 62 47.1 61.5C46.7 61.2 46.3 61 46.1 61C45.9 61 45.4 60.8 45.1 60.5C44.7 60.2 44.3 60 44.1 60C43.4 60 41 57.6 41 56.9C41 56.7 40.8 56.3 40.5 55.9C40.1 55.4 40 55.1 40 54.4C40 53.8 39.9 53.5 39.5 52.9C39 52.3 39 52.2 39 50.9L39 49.5L37.7 48.3L36.5 47L30 47L23.5 47L22.8 47.8C22.3 48.2 22 48.7 22 48.9C22 49.1 21.8 49.6 21.5 49.9C21.1 50.5 21 50.7 21 51.9C21 53.2 21 53.3 20.5 53.9C20.2 54.3 20 54.7 20 54.9C20 55.1 19.8 55.6 19.5 55.9C19.2 56.3 19 56.7 19 56.9C19 57.7 15.7 61 14.9 61C14.7 61 14.3 61.2 13.9 61.5L13.3 62L10.5 62L7.7 62L7.1 61.5ZM61.9 61.3C60.1 59.8 60 59.6 61.2 58.3C61.6 57.8 62 57.3 62 57.1C62 56.9 62.2 56.4 62.5 56.1L63 55.4L63 50L63 44.6L62.5 43.9C62.2 43.6 62 43.1 62 42.9C62 42.7 61.8 42.3 61.5 41.9C61.2 41.6 61 41.1 61 40.9C61 40.7 60.8 40.3 60.5 39.9C60.2 39.6 60 39.1 60 38.9C60 38.7 59.8 38.3 59.5 37.9C59.2 37.6 59 37.1 59 36.9C59 36.7 58.8 36.3 58.5 35.9C58.2 35.6 58 35.1 58 34.9C58 34.7 57.8 34.3 57.5 33.9C57.2 33.6 57 33.1 57 32.9C57 32.7 56.8 32.3 56.5 31.9C56.1 31.4 56 31.1 56 30.4C56 29.8 55.9 29.5 55.5 28.9C55.1 28.4 55 28.1 55 27.4C55 26.8 54.9 26.5 54.5 25.9C54.1 25.4 54 25.1 54 24.5C54 23.9 54.1 23.6 54.5 23.1C55 22.4 55 22.4 55 20.1C55 17.7 55 17.7 55.5 17.1C56 16.4 56 16.4 56 14.1C56 11.7 56 11.7 56.5 11.1C56.8 10.7 57 10.3 57 10.1C57 9.9 57.2 9.4 57.5 9.1C57.9 8.5 58 8.2 58 7.6C58 6.6 58.2 6.3 60.2 4.3C61.9 2.6 62.7 2 63.1 2C63.3 2 63.7 1.8 64.1 1.5C64.6 1.1 64.9 1 65.5 1C66.3 1 67 0.6 67 0.2C67 0.1 67.9 0 69.5 0C71.1 0 72 0.1 72 0.2C72 0.6 72.7 1 73.5 1C74.1 1 74.4 1.1 74.9 1.5C75.3 1.8 75.7 2 75.9 2C76.7 2 81 6.3 81 7.1C81 7.3 81.2 7.7 81.5 8.1C81.9 8.6 82 8.9 82 9.6C82 10.2 82.1 10.5 82.5 11.1C83 11.7 83 11.8 83 13.1C83 14.3 83.1 14.5 83.5 15.1C84 15.7 84 15.8 84 17.1C84 18.3 84 18.4 84.5 19C84.7 19.3 85 19.8 85.1 20.1C85.3 20.7 85.7 20.7 85.9 20.1C86 19.8 86.3 19.3 86.5 19C87 18.4 87 18.3 87 17.1C87 15.8 87 15.7 87.5 15.1C88 14.4 88 14.4 88 12.6C88 10.8 88 10.7 88.5 10.1C88.8 9.7 89 9.3 89 9.1C89 8.9 89.2 8.4 89.5 8.1C89.8 7.7 90 7.3 90 7.1C90 6.6 90.6 5.9 92.7 3.8C95.6 0.9 95.5 1 97 1C98.3 1 99 0.7 99 0.2C99 0.1 99.9 0 101.5 0C103.1 0 104 0.1 104 0.2C104 0.6 104.7 1 105.5 1C106.1 1 106.4 1.1 106.9 1.5C107.3 1.8 107.7 2 107.9 2C108.7 2 112 5.3 112 6.1C112 6.3 112.2 6.7 112.5 7.1C112.8 7.4 113 7.9 113 8.1C113 8.3 113.2 8.7 113.5 9.1C113.9 9.6 114 9.9 114 10.6C114 11.2 114.1 11.5 114.5 12.1C115 12.7 115 12.8 115 14.6C115 16.4 115 16.4 115.5 17.1L116 17.7L116 20.5C116 23.4 116.1 24 116.8 24C116.9 24 117 27.8 117 35C117 42.2 116.9 46 116.8 46C116.1 46 116 46.6 116 49.5L116 52.3L115.5 52.9C115.2 53.3 115 53.7 115 53.9C115 54.1 114.8 54.6 114.5 54.9C114.2 55.3 114 55.7 114 55.9C114 56.1 113.8 56.6 113.5 56.9C113.2 57.3 113 57.8 113 58C113 58.5 111.5 60 111 60C110.8 60 110.3 60.2 109.9 60.5C109.6 60.8 109.1 61 108.9 61C108.7 61 108.3 61.2 107.9 61.5L107.3 62L104.5 62L101.7 62L101.1 61.5C100.7 61.2 100.3 61 100.1 61C99.3 61 96 57.7 96 56.9C96 56.7 95.8 56.3 95.5 55.9L95 55.3L95 51.5L95 47.7L95.5 47.1C95.9 46.5 96 46.2 96 45.6C96 44.9 96.1 44.6 96.5 44.1C96.9 43.5 97 43.2 97 42.6C97 41.9 97.1 41.6 97.5 41.1L98 40.4L98 37.1C98 33.8 97.9 33.3 97.4 33.3C97.1 33.3 96 34.5 96 34.9C96 35.1 95.8 35.6 95.5 35.9C95.2 36.3 95 36.7 95 36.9C95 37.1 94.8 37.6 94.5 37.9C94.2 38.3 94 38.7 94 38.9C94 39.7 89.7 44 88.9 44C88.7 44 88.3 44.2 87.9 44.5C87.3 45 87.2 45 85.5 45C83.8 45 83.7 45 83.1 44.5C82.7 44.2 82.3 44 82.1 44C81.9 44 81.4 43.8 81.1 43.5C80.7 43.2 80.2 43 80 43C79.6 43 79 42.4 79 41.9C79 41.7 78.8 41.4 78.6 41.1C77.7 40.2 77 39.3 77 38.9C77 38.7 76.8 38.3 76.5 37.9C76.2 37.6 76 37.1 76 36.9C76 36.7 75.8 36.3 75.5 35.9C75.2 35.6 75 35.1 75 34.9C75 34.5 73.9 33.3 73.6 33.3C73.1 33.3 73 33.8 73 37.1L73 40.4L73.5 41.1C73.9 41.6 74 41.9 74 42.6C74 43.2 74.1 43.5 74.5 44.1C74.9 44.6 75 44.9 75 45.6C75 46.2 75.1 46.5 75.5 47.1L76 47.7L76 51.5L76 55.3L75.5 55.9C75.2 56.3 75 56.7 75 56.9C75 57.7 71.7 61 70.9 61C70.7 61 70.3 61.2 69.9 61.5L69.3 62L66 62L62.7 62L61.9 61.3ZM33.7 30.7L35 29.5L35 28C35 26.7 35 26.5 34.5 25.9C34.1 25.4 34 25.1 34 24.4C34 23.8 33.9 23.5 33.5 22.9C33.2 22.6 33 22.1 33 21.9C33 21.7 32.7 21.2 32.2 20.8L31.5 20L30.1 20C28.6 20 28 20.3 28 21C28 21.1 27.8 21.6 27.5 21.9C27.2 22.3 27 22.7 27 22.9C27 23.1 26.8 23.6 26.5 23.9L26 24.6L26 27.5L26 30.5L26.8 31.2L27.5 32L30 32L32.5 32L33.7 30.7ZM16.4 19.1C17.1 18.4 17.2 17.8 16.7 17.3C15.9 16.6 15 17.2 15 18.5C15 19.8 15.4 20 16.4 19.1ZM19.2 13.2C19.7 12.8 20 12.3 20 12.1C20 11.4 22.3 9 23.1 9C23.3 9 23.7 8.8 24.1 8.5C24.4 8.2 24.9 8 25.1 8C25.3 8 25.7 7.8 26.1 7.5C26.4 7.2 26.9 7 27 7C27.4 7 28 6.4 28 6C28 4.9 26.1 4.6 24.9 5.5C24.6 5.8 24.1 6 23.9 6C23.7 6 23.3 6.2 22.9 6.5C22.6 6.8 22.1 7 21.9 7C21.4 7 19 9.4 19 9.9C19 10.3 18.3 11.2 17.4 12.1C16.9 12.6 16.9 13.2 17.3 13.7C17.9 14.2 18.4 14.1 19.2 13.2ZM62.2 13.2C63 12.5 63 12.4 63 11.6C63 10.8 63.1 10.6 63.5 10.1C64.9 8.5 66.6 7 67 7C67.2 7 67.6 6.8 68 6.6C68.3 6.3 68.7 6.1 69 6C69.7 5.8 69.8 5.4 69.3 4.8C68.7 4.2 68.5 4.2 67.8 4.7C67.5 4.8 67.1 5 66.9 5C66.7 5 66.3 5.2 65.9 5.5C65.6 5.8 65.1 6 64.9 6C64.4 6 62 8.4 62 8.9C62 9.1 61.8 9.6 61.5 9.9C61.2 10.3 61 10.7 61 10.9C61 11.1 60.8 11.6 60.5 11.9C59.2 13.6 60.7 14.7 62.2 13.2Z"/></svg>